<svg width="60" height="60" viewBox="0 0 60 60" fill="none" xmlns="http://www.w3.org/2000/svg">
<circle cx="30" cy="30" r="30" fill="white"/>
<g filter="url(#filter0_i)">
<circle cx="29.85" cy="30.1499" r="22.6023" transform="rotate(90 29.85 30.1499)" fill="white"/>
</g>
<path fill-rule="evenodd" clip-rule="evenodd" d="M29.7835 13.2326C29.9514 13.2326 30.0874 12.6209 30.0874 11.8663C30.0874 11.1117 29.9514 10.5 29.7835 10.5C29.6157 10.5 29.4797 11.1117 29.4797 11.8663C29.4797 12.6209 29.6157 13.2326 29.7835 13.2326ZM29.7835 49.6671C29.9514 49.6671 30.0874 49.0554 30.0874 48.3008C30.0874 47.5462 29.9514 46.9345 29.7835 46.9345C29.6157 46.9345 29.4797 47.5462 29.4797 48.3008C29.4797 49.0554 29.6157 49.6671 29.7835 49.6671Z" fill="#C2B8B8"/>
<path fill-rule="evenodd" clip-rule="evenodd" d="M46.6344 30.0836C46.6344 30.2515 47.2461 30.3875 48.0007 30.3875C48.7553 30.3875 49.367 30.2515 49.367 30.0836C49.367 29.9158 48.7553 29.7798 48.0007 29.7798C47.2461 29.7798 46.6344 29.9158 46.6344 30.0836ZM10.2 30.0834C10.2 30.2512 10.8117 30.3873 11.5663 30.3873C12.3208 30.3873 12.9326 30.2512 12.9326 30.0834C12.9326 29.9156 12.3208 29.7795 11.5663 29.7795C10.8117 29.7795 10.2 29.9156 10.2 30.0834Z" fill="#C2B8B8"/>
<path d="M29.1 15.4501C29.1 15.0359 29.4358 14.7001 29.85 14.7001V14.7001C30.2642 14.7001 30.6 15.0359 30.6 15.4501V33.1501C30.6 33.5643 30.2642 33.9001 29.85 33.9001V33.9001C29.4358 33.9001 29.1 33.5643 29.1 33.1501V15.4501Z" fill="#517593"/>
<path d="M27.45 30.6001C27.0358 30.6001 26.7 30.2643 26.7 29.8501V29.8501C26.7 29.4359 27.0358 29.1001 27.45 29.1001H40.05C40.4642 29.1001 40.8 29.4359 40.8 29.8501V29.8501C40.8 30.2643 40.4642 30.6001 40.05 30.6001H27.45Z" fill="#517593"/>
<defs>
<filter id="filter0_i" x="7.24773" y="7.54761" width="45.2045" height="46.2045" filterUnits="userSpaceOnUse" color-interpolation-filters="sRGB">
<feFlood flood-opacity="0" result="BackgroundImageFix"/>
<feBlend mode="normal" in="SourceGraphic" in2="BackgroundImageFix" result="shape"/>
<feColorMatrix in="SourceAlpha" type="matrix" values="0 0 0 0 0 0 0 0 0 0 0 0 0 0 0 0 0 0 127 0" result="hardAlpha"/>
<feOffset dy="1"/>
<feGaussianBlur stdDeviation="11.5"/>
<feComposite in2="hardAlpha" operator="arithmetic" k2="-1" k3="1"/>
<feColorMatrix type="matrix" values="0 0 0 0 0 0 0 0 0 0 0 0 0 0 0 0 0 0 0.06 0"/>
<feBlend mode="normal" in2="shape" result="effect1_innerShadow"/>
</filter>
</defs>
</svg>
