<?xml version="1.0" encoding="utf-8"?>
<!-- Generator: Adobe Illustrator 24.3.0, SVG Export Plug-In . SVG Version: 6.00 Build 0)  -->
<svg version="1.1" id="Ebene_1" xmlns="http://www.w3.org/2000/svg" xmlns:xlink="http://www.w3.org/1999/xlink" x="0px" y="0px"
	 viewBox="0 0 151 201" style="enable-background:new 0 0 151 201;" xml:space="preserve">
<style type="text/css">
	.st0{fill-rule:evenodd;clip-rule:evenodd;fill:#FFFFFF;stroke:#FFFFFF;stroke-width:2;}
	.st1{fill:#072182;}
	.st2{fill-rule:evenodd;clip-rule:evenodd;fill:#F4F4F4;}
	.st3{fill-rule:evenodd;clip-rule:evenodd;fill:#C6C6C5;}
	.st4{fill-rule:evenodd;clip-rule:evenodd;fill:#072182;}
	.st5{fill-rule:evenodd;clip-rule:evenodd;fill:#E53212;}
	.st6{fill-rule:evenodd;clip-rule:evenodd;fill:#00A89E;}
	.st7{fill-rule:evenodd;clip-rule:evenodd;fill:#FBBD00;}
	.st8{fill-rule:evenodd;clip-rule:evenodd;fill:#005D8C;}
	.st9{fill:#00A89E;}
	.st10{fill:#E53212;}
	.st11{fill:#FBBD00;}
</style>
<path class="st0" d="M1,200h149V72.9h-0.3C148.6,33.1,115.8,1,75.3,1C34.3,0.9,1,34.1,1,74.9V200z"/>
<path class="st1" d="M142.2,135.9H9.2v6.1h133V135.9z"/>
<path class="st2" d="M9.2,141h133V73.2H142c-1-35.5-30.3-64.1-66.4-64.1C38.9,9,9.2,38.6,9.2,75V141z"/>
<path class="st3" d="M62.1,18.2c5.5,0,10.1,4.5,10.1,10v51.2c-0.2,2.2-1.1,4.2-2.9,5.8c-2.4,2.2-5.7,2.8-8.7,1.9l-0.9,2.8
	c3.9,1.2,8.4,0.4,11.6-2.6c0.3-0.3,0.6-0.6,0.9-0.9v35.5c0,5.5-4.5,10-10.1,10c-5,0-9.1-3.6-9.9-8.3c-1,0.2-1.9,0.4-3,0.4
	c-6.1,0-11.2-4.6-11.9-10.5c-0.2-1.9,0-3.7,0.9-5.4c0.4-0.7,0.9-1.4,1.5-2c2-2,4.7-2.8,7.3-2.6c0.2,0.8,0.6,1.6,1,2.3
	c1.4,2.5,3.7,4.2,6.3,5.2c-1.4,1.5-2.2,3.5-2.3,5.6h3c0-1.8,0.9-3.4,2.5-4.5c1.6-1,3.5-1,5.1-0.3l1.2-2.6c-1.8-0.9-4-1-6-0.4
	c-2.9-0.2-5.7-1.7-7.2-4.4c-1.6-2.8-1.5-6.2,0-8.9l-2.6-1.4c-1.1,1.9-1.7,4.2-1.5,6.5c-3.2-0.1-6.4,1-8.8,3.4c-1.4,1.4-2.4,3-3,4.8
	c-5.5-2.1-9.5-7.4-9.5-13.7c0-2.7,0.7-5.3,2.1-7.5c0.9-1.5,2-2.8,3.5-3.9c1.3-1,2.7-1.8,4.3-2.3l-1.1-2.7c-2.3,0.8-4.3,2-6.1,3.7
	c-0.7,0.7-1.4,1.4-2.1,2.3c-3-2.2-4.9-5.7-4.9-9.7c0-5,3.1-9.3,7.6-11.1c-1.9-2.5-3.1-5.6-3.1-8.9c0-2.7,0.7-5.4,2.1-7.5
	c1.5-2.6,3.8-4.6,6.5-5.7c1.8-0.8,3.9-1.3,6-1.3c4.6,0,8.7,2.2,11.3,5.4l0.2-0.1c0,0.1,0,0.1,0,0.2c0.6,4.3,3.5,7.7,7.4,9.2l1.1-2.7
	c-2.9-1.1-5.1-3.7-5.5-6.9c-0.4-2.7,0.5-5.4,2.3-7.3c0,0,0,0,0.1,0c2.6,1.4,5.5,1.2,8-0.2l-1.4-2.6c-1.5,0.9-3.5,1-5.1,0.1
	c-1.7-0.9-2.7-2.6-2.8-4.2l-3,0.2c0.2,1.8,0.9,3.4,2,4.8c-1.4,1.5-2.3,3.4-2.8,5.5c-3.1-2.7-7.2-4.4-11.6-4.4
	c-0.9,0-1.7,0.1-2.6,0.2C37.5,31.2,42.8,26,49.2,26c1,0,2,0.2,3,0.4C53,21.8,57.1,18.2,62.1,18.2z M45.7,78.2
	c1.8-3.3,2-7.3,0.4-10.7c1.6-2.2,4.1-3.6,7.1-3.7c3.3,0,6.2,1.7,7.8,4.3l2.6-1.5c-2.1-3.5-6-5.8-10.4-5.7c-3.5,0.1-6.6,1.6-8.7,4
	c-2.3-2.7-5.7-4.2-9.2-4.2v3c3.1,0,6.1,1.4,7.8,4.3c1.7,2.8,1.6,6.1,0.2,8.9L45.7,78.2z"/>
<path class="st4" d="M82.6,98.5c1.8,0,3.4,1.5,3.4,3.4c0,1.8-1.5,3.4-3.4,3.4c-1.8,0-3.4-1.5-3.4-3.4C79.1,100,80.6,98.5,82.6,98.5z
	"/>
<path class="st5" d="M120.4,93.7c2.7,0,4.9,2.2,4.9,4.9c0,2.7-2.3,4.9-4.9,4.9c-2.7,0-4.9-2.2-4.9-4.9
	C115.5,95.9,117.7,93.7,120.4,93.7z"/>
<path class="st6" d="M114.9,41c2.3,0,4,1.8,4,4c0,2.2-1.8,4-4,4c-2.2,0-4-1.8-4-4C110.9,42.9,112.6,41,114.9,41z"/>
<path class="st5" d="M99.6,79.9c1.8,0,3.4,1.5,3.4,3.4c0,1.8-1.5,3.4-3.4,3.4c-1.8,0-3.4-1.5-3.4-3.4C96.2,81.4,97.8,79.9,99.6,79.9
	z"/>
<path class="st5" d="M82.6,49.9c1.8,0,3.4,1.5,3.4,3.4s-1.5,3.4-3.4,3.4c-1.8,0-3.4-1.5-3.4-3.4C79.1,51.4,80.6,49.9,82.6,49.9z"/>
<path class="st5" d="M95,108.7c1.8,0,3.4,1.5,3.4,3.4c0,1.8-1.5,3.4-3.4,3.4c-1.8,0-3.4-1.5-3.4-3.4C91.6,110.2,93.1,108.7,95,108.7
	z"/>
<path class="st5" d="M106.9,27.7c1.8,0,3.4,1.5,3.4,3.4c0,1.8-1.5,3.4-3.4,3.4c-1.8,0-3.4-1.5-3.4-3.4
	C103.6,29.2,105.1,27.7,106.9,27.7z"/>
<path class="st6" d="M99.1,35.1c1.4,0,2.7,1.2,2.7,2.6c0,1.4-1.2,2.6-2.7,2.6c-1.4,0-2.7-1.2-2.7-2.6C96.4,36.3,97.5,35.1,99.1,35.1
	z"/>
<path class="st6" d="M92.1,50.4c1,0,1.8,0.8,1.8,1.8c0,1-0.8,1.8-1.8,1.8c-1,0-1.8-0.8-1.8-1.8C90.4,51.1,91.1,50.4,92.1,50.4z"/>
<path class="st4" d="M112.2,106.7c1,0,1.8,0.8,1.8,1.8c0,1-0.8,1.8-1.8,1.8c-1,0-1.8-0.8-1.8-1.8
	C110.6,107.4,111.3,106.7,112.2,106.7z"/>
<path class="st5" d="M110.8,73.4c1,0,1.8,0.8,1.8,1.8c0,1-0.8,1.8-1.8,1.8c-1,0-1.8-0.8-1.8-1.8C109,74.2,109.8,73.4,110.8,73.4z"/>
<path class="st5" d="M92.9,94.4c1,0,1.8,0.8,1.8,1.8s-0.8,1.8-1.8,1.8s-1.8-0.8-1.8-1.8S91.9,94.4,92.9,94.4z"/>
<path class="st4" d="M107.4,38.2c1,0,1.8,0.8,1.8,1.8c0,1-0.8,1.8-1.8,1.8c-1,0-1.8-0.8-1.8-1.8C105.7,38.9,106.5,38.2,107.4,38.2z"
	/>
<path class="st7" d="M110.2,51.4c1,0,1.8,0.8,1.8,1.8c0,1-0.8,1.8-1.8,1.8s-1.8-0.8-1.8-1.8C108.4,52.1,109.2,51.4,110.2,51.4z"/>
<path class="st4" d="M117.6,85c1,0,1.8,0.8,1.8,1.8s-0.8,1.8-1.8,1.8c-1,0-1.8-0.8-1.8-1.8S116.7,85,117.6,85z"/>
<path class="st6" d="M85.4,63.5c1.8,0,3.4,1.5,3.4,3.4s-1.5,3.4-3.4,3.4c-1.8,0-3.4-1.5-3.4-3.4S83.5,63.5,85.4,63.5z"/>
<path class="st7" d="M110.3,98.8c1,0,1.8,0.8,1.8,1.8s-0.8,1.8-1.8,1.8c-1,0-1.8-0.8-1.8-1.8S109.3,98.8,110.3,98.8z"/>
<path class="st6" d="M90.1,102.7c1,0,1.8,0.8,1.8,1.8s-0.8,1.8-1.8,1.8c-1,0-1.8-0.8-1.8-1.8C88.4,103.5,89.2,102.7,90.1,102.7z"/>
<path class="st7" d="M84.2,110.8c1,0,1.8,0.8,1.8,1.8s-0.8,1.8-1.8,1.8c-1,0-1.8-0.8-1.8-1.8C82.5,111.6,83.3,110.8,84.2,110.8z"/>
<path class="st4" d="M82.2,74.1c1,0,1.8,0.8,1.8,1.8s-0.8,1.8-1.8,1.8c-1,0-1.8-0.8-1.8-1.8S81.3,74.1,82.2,74.1z"/>
<path class="st6" d="M109.4,80.3c1,0,1.8,0.8,1.8,1.8c0,1-0.8,1.8-1.8,1.8c-1,0-1.8-0.8-1.8-1.8C107.7,81.1,108.5,80.3,109.4,80.3z"
	/>
<path class="st5" d="M95.7,67.4c1,0,1.8,0.8,1.8,1.8c0,1-0.8,1.8-1.8,1.8c-1,0-1.8-0.8-1.8-1.8C93.9,68.1,94.7,67.4,95.7,67.4z"/>
<path class="st8" d="M99.5,90.2c1,0,1.8,0.8,1.8,1.8s-0.8,1.8-1.8,1.8c-1,0-1.8-0.8-1.8-1.8S98.6,90.2,99.5,90.2z"/>
<path class="st7" d="M89.3,56.6c1,0,1.8,0.8,1.8,1.8c0,1-0.8,1.8-1.8,1.8c-1,0-1.8-0.8-1.8-1.8C87.6,57.4,88.4,56.6,89.3,56.6z"/>
<path class="st7" d="M80.9,33.8c1,0,1.8,0.8,1.8,1.8c0,1-0.8,1.8-1.8,1.8c-1,0-1.8-0.8-1.8-1.8C79.1,34.6,79.9,33.8,80.9,33.8z"/>
<path class="st9" d="M88.7,123.9l17-7.1l-5.7-15l-0.2-0.4l0.3-0.4l8.8-10.4l1.2,1l-8.4,10.1l5.8,15.3l0.2,0.7l-0.6,0.3l-17.8,7.4
	L88.7,123.9z"/>
<path class="st6" d="M106.7,112.4c2.7,0,4.9,2.2,4.9,4.9c0,2.7-2.3,4.9-4.9,4.9c-2.7,0-4.9-2.2-4.9-4.9
	C101.8,114.5,104,112.4,106.7,112.4z"/>
<path class="st6" d="M109.6,87.8c1.8,0,3.4,1.5,3.4,3.4s-1.5,3.4-3.4,3.4c-1.9,0-3.4-1.5-3.4-3.4S107.7,87.8,109.6,87.8z"/>
<path class="st6" d="M89,117.5c4,0,7.2,3.3,7.2,7.2c0,4-3.3,7.2-7.2,7.2s-7.2-3.3-7.2-7.2C81.8,120.7,85.1,117.5,89,117.5z"/>
<path class="st6" d="M100.7,98.1c1.8,0,3.4,1.5,3.4,3.4c0,1.8-1.5,3.4-3.4,3.4c-1.9,0-3.4-1.5-3.4-3.4
	C97.4,99.7,98.9,98.1,100.7,98.1z"/>
<path class="st10" d="M123,55.6l-11.6,7.3l12.3,11.6l-1.1,1.2l-13-12.3l-0.7-0.6l0.8-0.6l12.5-7.8L123,55.6z"/>
<path class="st5" d="M123.2,67.8c4,0,7.2,3.3,7.2,7.2c0,3.9-3.3,7.2-7.2,7.2c-4,0-7.2-3.3-7.2-7.2C115.9,71.1,119.2,67.8,123.2,67.8
	z"/>
<path class="st5" d="M122.6,51.6c1.9,0,3.4,1.5,3.4,3.4c0,1.8-1.5,3.4-3.4,3.4c-1.8,0-3.4-1.5-3.4-3.4
	C119.2,53.1,120.8,51.6,122.6,51.6z"/>
<path class="st5" d="M110.2,58.8c2.3,0,4,1.8,4,4c0,2.2-1.8,4-4,4c-2.3,0-4-1.8-4-4C106.1,60.5,107.9,58.8,110.2,58.8z"/>
<path class="st11" d="M84.3,88.8l6.1-13.1l0.1-0.4l0.4-0.1l12.3-3.1l0.4,1.5l-12,3l-5.9,12.8L84.3,88.8z"/>
<path class="st7" d="M85,83.3c3.2,0,5.9,2.6,5.9,5.8c0,3.2-2.7,5.8-5.9,5.8c-3.2,0-5.9-2.6-5.9-5.8C79.2,85.8,81.8,83.3,85,83.3z"/>
<path class="st7" d="M103.4,69.5c1.8,0,3.4,1.5,3.4,3.4c0,1.8-1.5,3.4-3.4,3.4c-1.8,0-3.4-1.5-3.4-3.4C100,71,101.5,69.5,103.4,69.5
	z"/>
<path class="st7" d="M91.1,72.7c1.8,0,3.4,1.5,3.4,3.4c0,1.8-1.5,3.4-3.4,3.4c-1.8,0-3.4-1.5-3.4-3.4C87.6,74.1,89.2,72.7,91.1,72.7
	z"/>
<path class="st4" d="M101.2,46.6c-1,0-1.8,0.4-2.4,1l-5.2-3c0.2-0.6,0.3-1.1,0.3-1.8c0-2.4-1.8-4.4-4.1-4.8v-5.4
	c3.6-0.4,6.5-3.4,6.5-7.2c0-4-3.3-7.2-7.2-7.2s-7.2,3.3-7.2,7.2c0,3.7,2.8,6.7,6.4,7.1v5.4c-2.3,0.4-4.1,2.4-4.1,4.8
	c0,2.7,2.3,4.9,4.9,4.9c1.5,0,2.9-0.7,3.8-1.8l5.2,3c-0.1,0.3-0.2,0.6-0.2,1c0,1.2,0.6,2.3,1.6,2.9L98,57.6c-0.1,0-0.2,0-0.2,0
	c-1.8,0-3.4,1.5-3.4,3.4c0,1.8,1.5,3.4,3.4,3.4c1.8,0,3.4-1.5,3.4-3.4c0-1.2-0.6-2.2-1.6-2.9l1.5-4.9c0.1,0,0.2,0,0.2,0
	c1.8,0,3.4-1.5,3.4-3.4C104.6,48,103.1,46.6,101.2,46.6z"/>
<path class="st1" d="M22.3,185c-2.4,0-4.4-0.3-6.1-1.1c-1.6-0.8-3.1-1.7-4-3c-1-1.3-1.8-2.7-2.2-4.4c-0.4-1.7-0.7-3.5-0.7-5.5v-22.4
	h3.5v22c0,1.9,0.3,3.6,0.7,5.1c0.4,1.4,1.1,2.6,2,3.5c0.8,0.9,1.8,1.6,3,2c1.2,0.4,2.5,0.7,3.9,0.7s2.7-0.3,3.9-0.7
	c1.2-0.4,2.1-1.2,3-2c0.8-0.9,1.5-2.1,2-3.5c0.4-1.4,0.7-3.1,0.7-5.1v-22h3.5V171c0,1.9-0.3,3.8-0.7,5.5c-0.4,1.7-1.2,3.1-2.2,4.4
	c-1,1.3-2.4,2.3-4,3C26.7,184.7,24.7,185,22.3,185z"/>
<path class="st1" d="M52.1,148.3c5.1,0,8.9,0.9,11.4,2.9c2.5,1.9,3.8,4.7,3.8,8.2c0,2-0.3,3.7-1.1,5.2c-0.8,1.4-1.8,2.5-3.2,3.5
	c-1.4,0.8-3,1.5-5,1.9c-2,0.4-4.2,0.6-6.6,0.6h-4.9v13.7H43v-34.9c1.2-0.3,2.7-0.6,4.4-0.8C49,148.4,50.6,148.3,52.1,148.3z
	 M52.3,151.4c-1.3,0-2.4,0-3.3,0.1c-0.9,0.1-1.7,0.2-2.4,0.3v15.7H51c1.9,0,3.6-0.1,5.1-0.3c1.5-0.3,2.8-0.7,3.9-1.2
	c1.1-0.6,2-1.4,2.5-2.5c0.6-1.1,0.9-2.4,0.9-4.1c0-1.5-0.3-2.9-0.9-3.9c-0.7-1-1.5-1.9-2.6-2.5c-1-0.6-2.2-1-3.6-1.3
	C55,151.5,53.6,151.4,52.3,151.4z"/>
<path class="st1" d="M77.4,181.9c2,0,3.5-0.3,4.8-0.9c1.3-0.7,1.9-1.7,1.9-3.2c0-0.8-0.1-1.4-0.3-1.9c-0.3-0.5-0.6-1-1.1-1.4
	c-0.5-0.4-1.2-0.8-2-1.2c-0.9-0.4-1.9-0.8-3.2-1.4c-1-0.4-2-0.8-2.8-1.3c-0.9-0.4-1.7-0.9-2.4-1.5c-0.7-0.6-1.2-1.2-1.6-2
	c-0.4-0.8-0.6-1.8-0.6-2.9c0-2.1,0.8-3.9,2.5-5.3c1.6-1.4,3.9-1.9,6.7-1.9c1.8,0,3.3,0.2,4.5,0.4c1.2,0.3,2,0.6,2.5,0.8l-0.8,3
	c-0.4-0.2-1.1-0.5-2-0.8c-1-0.3-2.4-0.5-4.4-0.5c-0.8,0-1.5,0.1-2.1,0.3c-0.7,0.2-1.3,0.4-1.8,0.8c-0.5,0.3-0.9,0.8-1.2,1.2
	c-0.3,0.5-0.4,1.1-0.4,1.9s0.2,1.4,0.4,1.9c0.3,0.5,0.7,0.9,1.2,1.4c0.5,0.4,1.2,0.8,2,1.1c0.8,0.3,1.6,0.8,2.6,1.1
	c1,0.4,2,0.8,3,1.3c0.9,0.4,1.8,0.9,2.5,1.5c0.8,0.6,1.3,1.3,1.8,2.1c0.4,0.8,0.7,1.9,0.7,3.1c0,2.4-0.9,4.2-2.7,5.4
	c-1.8,1.2-4.3,1.9-7.4,1.9c-2.4,0-4.1-0.2-5.4-0.6c-1.2-0.4-2-0.7-2.5-0.9l0.9-3.1c0.1,0.1,0.3,0.2,0.7,0.3c0.3,0.2,0.8,0.3,1.4,0.5
	c0.6,0.2,1.3,0.3,2,0.5C75.3,181.8,76.3,181.9,77.4,181.9z"/>
<path class="st1" d="M99.2,169.7c1.2,0.8,2.5,1.9,3.7,3c1.2,1.1,2.5,2.4,3.7,3.6c1.2,1.3,2.4,2.6,3.4,4c1.1,1.4,2,2.7,2.7,3.9h-4
	c-0.8-1.4-1.7-2.7-2.8-4c-1.1-1.3-2.2-2.5-3.3-3.6c-1.1-1.1-2.4-2.2-3.5-3.1c-1.1-0.9-2.2-1.6-3.2-2.1v12.9h-3.3V145l3.3-0.6v24.8
	c0.8-0.6,1.6-1.4,2.7-2.5c1.1-1.1,2.1-2.1,3.2-3.1c1.1-1.1,2.1-2.1,3.2-3.1c1-1,1.8-1.9,2.5-2.6h4.1c-0.8,0.8-1.7,1.7-2.7,2.7
	c-1,1-2,2-3.2,3.1c-1.1,1.1-2.2,2.1-3.2,3.2C101.3,167.8,100.2,168.8,99.2,169.7z"/>
<path class="st1" d="M120.6,149.7c0,0.8-0.3,1.4-0.8,1.9c-0.5,0.4-1.1,0.7-1.8,0.7s-1.3-0.3-1.8-0.7c-0.5-0.4-0.8-1.1-0.8-1.9
	c0-0.8,0.3-1.4,0.8-1.9s1.1-0.7,1.8-0.7s1.3,0.3,1.8,0.7C120.4,148.2,120.6,148.9,120.6,149.7z M119.9,184.2h-3.3v-26.5h3.3V184.2z"
	/>
<path class="st1" d="M138.8,184.2V145l3.3-0.6v39.8H138.8z"/>
<path class="st1" d="M127.3,184.2V145l3.3-0.6v39.8H127.3z"/>
<path class="st11" d="M110.5,188H75.4v6.1h35.1V188z"/>
<path class="st1" d="M42.5,188H9.2v6.1h33.3V188z"/>
<path class="st9" d="M75.8,188H42.5v6.1h33.3V188z"/>
<path class="st10" d="M142.2,188h-33.3v6.1h33.3V188z"/>
</svg>
